#Comment line ignore any data following # character 
#Hierarchical Translation and Rotation (.htr) file 
[Header]	
#Header keywords are followed by a single value 
FileType HTR		#Single word string
DataType HTRS		#Translation followed by rotation and scale data
FileVersion 1		#integer
NumSegments 84		#integer
NumFrames 2		#integer
DataFrameRate 30		#integer, data frame rate in this file
EulerRotationOrder ZYX
CalibrationUnits mm
RotationUnits Degrees
GlobalAxisofGravity Y
BoneLengthAxis Y
ScaleFactor 1.00
[SegmentNames&Hierarchy]
#CHILD	PARENT
MASTER GLOBAL
root MASTER
chest root
L_mid_tent01 root
R_mid_tent01 root
spine01 root
Bip01_Neck chest
L_humerus chest
R_humerus chest
weapon_bone chest
Bip01_Head Bip01_Neck
eye_left_bone Bip01_Head
eye_right_bone Bip01_Head
L_forearm L_humerus
L_front_hand L_forearm
L_weapon_bone L_forearm
L_front_hand01_01 L_front_hand
L_front_hand02_01 L_front_hand
L_front_hand03_01 L_front_hand
L_front_hand01_02 L_front_hand01_01
L_front_hand02_02 L_front_hand02_01
L_front_hand03_02 L_front_hand03_01
R_forearm R_humerus
R_front_hand R_forearm
R_weapon_bone R_forearm
R_front_hand01_01 R_front_hand
R_front_hand02_01 R_front_hand
R_front_hand03_01 R_front_hand
R_front_hand01_02 R_front_hand01_01
R_front_hand02_02 R_front_hand02_01
R_front_hand03_02 R_front_hand03_01
null_rope01_connect L_mid_tent01
Rope1_Seg01 null_rope01_connect
Rope1_Seg02 Rope1_Seg01
Rope1_Seg03 Rope1_Seg02
Rope1_Seg04 Rope1_Seg03
Rope1_Seg05 Rope1_Seg04
Rope1_Seg06 Rope1_Seg05
Rope1_Seg07 Rope1_Seg06
Rope1_Seg09 Rope1_Seg07
L_mid_hand01 Rope1_Seg09
L_mid_hand02 Rope1_Seg09
L_mid_hand03 Rope1_Seg09
null_rope02_connect R_mid_tent01
Rope2_Seg01 null_rope02_connect
Rope2_Seg02 Rope2_Seg01
Rope2_Seg03 Rope2_Seg02
Rope2_Seg04 Rope2_Seg03
Rope2_Seg05 Rope2_Seg04
Rope2_Seg06 Rope2_Seg05
Rope2_Seg07 Rope2_Seg06
Rope2_Seg09 Rope2_Seg07
R_mid_hand01 Rope2_Seg09
R_mid_hand02 Rope2_Seg09
R_mid_hand03 Rope2_Seg09
spine02 spine01
spine03 spine02
pelvis spine03
null_rope03_connect pelvis
null_rope04_connect pelvis
Rope3_Seg01 null_rope03_connect
Rope3_Seg02 Rope3_Seg01
Rope3_Seg03 Rope3_Seg02
Rope3_Seg04 Rope3_Seg03
Rope3_Seg05 Rope3_Seg04
Rope3_Seg06 Rope3_Seg05
Rope3_Seg07 Rope3_Seg06
Rope3_Seg08 Rope3_Seg07
Rope3_Seg09 Rope3_Seg08
R_rear_hand01 Rope3_Seg09
R_rear_hand02 Rope3_Seg09
R_rear_hand03 Rope3_Seg09
Rope4_Seg01 null_rope04_connect
Rope4_Seg02 Rope4_Seg01
Rope4_Seg03 Rope4_Seg02
Rope4_Seg04 Rope4_Seg03
Rope4_Seg05 Rope4_Seg04
Rope4_Seg06 Rope4_Seg05
Rope4_Seg07 Rope4_Seg06
Rope4_Seg08 Rope4_Seg07
Rope4_Seg09 Rope4_Seg08
L_rear_hand01 Rope4_Seg09
L_rear_hand02 Rope4_Seg09
L_rear_hand03 Rope4_Seg09
[BasePosition]
#SegmentName Tx, Ty, Tz, Rx, Ry, Rz, BoneLength
MASTER 0.000000 0.000000 0.000000 -90.000000 0.000000 0.000000 10.000000 
root 0.000000 0.000000 0.000000 0.000000 0.000000 0.000000 10.000000 
chest 0.000000 0.000000 0.000000 0.000000 0.000000 0.000000 10.000000 
L_mid_tent01 0.000000 0.000000 0.000000 0.000000 0.000000 0.000000 10.000000 
R_mid_tent01 0.000000 0.000000 0.000000 0.000000 0.000000 0.000000 10.000000 
spine01 0.000000 0.000000 0.000000 0.000000 0.000000 0.000000 10.000000 
Bip01_Neck 0.000000 0.000000 0.000000 0.000000 0.000000 0.000000 10.000000 
L_humerus 0.000000 0.000000 0.000000 0.000000 0.000000 0.000000 10.000000 
R_humerus 0.000000 0.000000 0.000000 0.000000 0.000000 0.000000 10.000000 
weapon_bone 0.000000 0.000000 0.000000 0.000000 0.000000 0.000000 10.000000 
Bip01_Head 0.000000 0.000000 0.000000 0.000000 0.000000 0.000000 10.000000 
eye_left_bone 0.000000 0.000000 0.000000 0.000000 0.000000 0.000000 10.000000 
eye_right_bone 0.000000 0.000000 0.000000 0.000000 0.000000 0.000000 10.000000 
L_forearm 0.000000 0.000000 0.000000 0.000000 0.000000 0.000000 10.000000 
L_front_hand 0.000000 0.000000 0.000000 0.000000 0.000000 0.000000 10.000000 
L_weapon_bone 0.000000 0.000000 0.000000 0.000000 0.000000 0.000000 10.000000 
L_front_hand01_01 0.000000 0.000000 0.000000 0.000000 0.000000 0.000000 10.000000 
L_front_hand02_01 0.000000 0.000000 0.000000 0.000000 0.000000 0.000000 10.000000 
L_front_hand03_01 0.000000 0.000000 0.000000 0.000000 0.000000 0.000000 10.000000 
L_front_hand01_02 0.000000 0.000000 0.000000 0.000000 0.000000 0.000000 10.000000 
L_front_hand02_02 0.000000 0.000000 0.000000 0.000000 0.000000 0.000000 10.000000 
L_front_hand03_02 0.000000 0.000000 0.000000 0.000000 0.000000 0.000000 10.000000 
R_forearm 0.000000 0.000000 0.000000 0.000000 0.000000 0.000000 10.000000 
R_front_hand 0.000000 0.000000 0.000000 0.000000 0.000000 0.000000 10.000000 
R_weapon_bone 0.000000 0.000000 0.000000 0.000000 0.000000 0.000000 10.000000 
R_front_hand01_01 0.000000 0.000000 0.000000 0.000000 0.000000 0.000000 10.000000 
R_front_hand02_01 0.000000 0.000000 0.000000 0.000000 0.000000 0.000000 10.000000 
R_front_hand03_01 0.000000 0.000000 0.000000 0.000000 0.000000 0.000000 10.000000 
R_front_hand01_02 0.000000 0.000000 0.000000 0.000000 0.000000 0.000000 10.000000 
R_front_hand02_02 0.000000 0.000000 0.000000 0.000000 0.000000 0.000000 10.000000 
R_front_hand03_02 0.000000 0.000000 0.000000 0.000000 0.000000 0.000000 10.000000 
null_rope01_connect 0.000000 0.000000 0.000000 0.000000 0.000000 0.000000 10.000000 
Rope1_Seg01 0.000000 0.000000 0.000000 0.000000 0.000000 0.000000 10.000000 
Rope1_Seg02 0.000000 0.000000 0.000000 0.000000 0.000000 0.000000 10.000000 
Rope1_Seg03 0.000000 0.000000 0.000000 0.000000 0.000000 0.000000 10.000000 
Rope1_Seg04 0.000000 0.000000 0.000000 0.000000 0.000000 0.000000 10.000000 
Rope1_Seg05 0.000000 0.000000 0.000000 0.000000 0.000000 0.000000 10.000000 
Rope1_Seg06 0.000000 0.000000 0.000000 0.000000 0.000000 0.000000 10.000000 
Rope1_Seg07 0.000000 0.000000 0.000000 0.000000 0.000000 0.000000 10.000000 
Rope1_Seg09 0.000000 0.000000 0.000000 0.000000 0.000000 0.000000 10.000000 
L_mid_hand01 0.000000 0.000000 0.000000 0.000000 0.000000 0.000000 10.000000 
L_mid_hand02 0.000000 0.000000 0.000000 0.000000 0.000000 0.000000 10.000000 
L_mid_hand03 0.000000 0.000000 0.000000 0.000000 0.000000 0.000000 10.000000 
null_rope02_connect 0.000000 0.000000 0.000000 0.000000 0.000000 0.000000 10.000000 
Rope2_Seg01 0.000000 0.000000 0.000000 0.000000 0.000000 0.000000 10.000000 
Rope2_Seg02 0.000000 0.000000 0.000000 0.000000 0.000000 0.000000 10.000000 
Rope2_Seg03 0.000000 0.000000 0.000000 0.000000 0.000000 0.000000 10.000000 
Rope2_Seg04 0.000000 0.000000 0.000000 0.000000 0.000000 0.000000 10.000000 
Rope2_Seg05 0.000000 0.000000 0.000000 0.000000 0.000000 0.000000 10.000000 
Rope2_Seg06 0.000000 0.000000 0.000000 0.000000 0.000000 0.000000 10.000000 
Rope2_Seg07 0.000000 0.000000 0.000000 0.000000 0.000000 0.000000 10.000000 
Rope2_Seg09 0.000000 0.000000 0.000000 0.000000 0.000000 0.000000 10.000000 
R_mid_hand01 0.000000 0.000000 0.000000 0.000000 0.000000 0.000000 10.000000 
R_mid_hand02 0.000000 0.000000 0.000000 0.000000 0.000000 0.000000 10.000000 
R_mid_hand03 0.000000 0.000000 0.000000 0.000000 0.000000 0.000000 10.000000 
spine02 0.000000 0.000000 0.000000 0.000000 0.000000 0.000000 10.000000 
spine03 0.000000 0.000000 0.000000 0.000000 0.000000 0.000000 10.000000 
pelvis 0.000000 0.000000 0.000000 0.000000 0.000000 0.000000 10.000000 
null_rope03_connect 0.000000 0.000000 0.000000 0.000000 0.000000 0.000000 10.000000 
null_rope04_connect 0.000000 0.000000 0.000000 0.000000 0.000000 0.000000 10.000000 
Rope3_Seg01 0.000000 0.000000 0.000000 0.000000 0.000000 0.000000 10.000000 
Rope3_Seg02 0.000000 0.000000 0.000000 0.000000 0.000000 0.000000 10.000000 
Rope3_Seg03 0.000000 0.000000 0.000000 0.000000 0.000000 0.000000 10.000000 
Rope3_Seg04 0.000000 0.000000 0.000000 0.000000 0.000000 0.000000 10.000000 
Rope3_Seg05 0.000000 0.000000 0.000000 0.000000 0.000000 0.000000 10.000000 
Rope3_Seg06 0.000000 0.000000 0.000000 0.000000 0.000000 0.000000 10.000000 
Rope3_Seg07 0.000000 0.000000 0.000000 0.000000 0.000000 0.000000 10.000000 
Rope3_Seg08 0.000000 0.000000 0.000000 0.000000 0.000000 0.000000 10.000000 
Rope3_Seg09 0.000000 0.000000 0.000000 0.000000 0.000000 0.000000 10.000000 
R_rear_hand01 0.000000 0.000000 0.000000 0.000000 0.000000 0.000000 10.000000 
R_rear_hand02 0.000000 0.000000 0.000000 0.000000 0.000000 0.000000 10.000000 
R_rear_hand03 0.000000 0.000000 0.000000 0.000000 0.000000 0.000000 10.000000 
Rope4_Seg01 0.000000 0.000000 0.000000 0.000000 0.000000 0.000000 10.000000 
Rope4_Seg02 0.000000 0.000000 0.000000 0.000000 0.000000 0.000000 10.000000 
Rope4_Seg03 0.000000 0.000000 0.000000 0.000000 0.000000 0.000000 10.000000 
Rope4_Seg04 0.000000 0.000000 0.000000 0.000000 0.000000 0.000000 10.000000 
Rope4_Seg05 0.000000 0.000000 0.000000 0.000000 0.000000 0.000000 10.000000 
Rope4_Seg06 0.000000 0.000000 0.000000 0.000000 0.000000 0.000000 10.000000 
Rope4_Seg07 0.000000 0.000000 0.000000 0.000000 0.000000 0.000000 10.000000 
Rope4_Seg08 0.000000 0.000000 0.000000 0.000000 0.000000 0.000000 10.000000 
Rope4_Seg09 0.000000 0.000000 0.000000 0.000000 0.000000 0.000000 10.000000 
L_rear_hand01 0.000000 0.000000 0.000000 0.000000 0.000000 0.000000 10.000000 
L_rear_hand02 0.000000 0.000000 0.000000 0.000000 0.000000 0.000000 10.000000 
L_rear_hand03 0.000000 0.000000 0.000000 0.000000 0.000000 0.000000 10.000000 
#Beginning of Data. Separated by tabs
#Fr	Tx	Ty	Tz	Rx	Ry	Rz	SF
[MASTER]
13 1347.202515 -43.225731 1761.172363 0.001660 0.001660 0.001660 2217.780762
14 1367.959229 -32.018929 1728.367310 0.001660 0.001660 0.001660 2204.447998
[root]
13 43.988491 -51.398674 304.501648 -11.858393 2.923877 -112.305962 311.926361
14 38.081497 -71.941376 336.818176 -10.276855 5.736545 -108.907433 346.514435
[chest]
13 -84.512650 -34.090519 0.000000 42.763161 19.865105 -170.199326 91.129311
14 -84.512650 -34.090519 0.000000 49.321453 24.063988 -168.231354 91.129311
[L_mid_tent01]
13 27.299019 22.179289 -249.918793 -0.242067 20.114885 78.878372 252.381760
14 27.299013 22.179306 -249.918808 -2.237565 19.497240 74.840736 252.381775
[R_mid_tent01]
13 23.228794 24.509907 226.238495 168.972626 -21.987171 67.978378 228.744751
14 23.228794 24.509907 226.238495 164.821167 -26.945940 65.777046 228.744751
[spine01]
13 -0.361383 -0.195265 0.000000 0.001804 0.001502 10.446970 0.410763
14 -0.361383 -0.195265 0.000000 0.001791 0.001517 9.453691 0.410763
[Bip01_Neck]
13 165.484543 71.581718 0.000119 176.643677 -1.657967 43.431911 180.302734
14 165.484543 71.581718 0.000119 176.643677 -1.657967 43.431911 180.302734
[L_humerus]
13 -13.983130 -135.272980 -120.471481 148.720673 58.963871 -153.514954 181.680161
14 -13.983130 -135.272980 -120.471481 134.705353 71.366310 -155.111176 181.680161
[R_humerus]
13 -13.983309 -135.273102 125.287651 -172.439240 -66.725060 -92.491844 184.909012
14 -13.983309 -135.273102 125.287651 179.185455 -74.666809 -79.840340 184.909012
[weapon_bone]
13 235.964890 -300.705902 0.000000 0.000000 -89.951546 -128.212341 382.234833
14 235.964890 -300.705902 0.000000 0.000000 -89.951546 -128.212341 382.234833
[Bip01_Head]
13 213.363037 185.942001 8.856200 18.207668 4.960581 -43.866070 283.154785
14 213.326950 186.042175 7.559509 18.223360 6.152111 -43.833599 283.155823
[eye_left_bone]
13 -24.626970 125.451866 -64.772606 0.000000 -90.000000 -99.840431 143.318359
14 -24.626970 125.451866 -64.772606 0.000000 -90.000000 -99.840431 143.318359
[eye_right_bone]
13 -24.626970 125.451866 64.327362 0.000000 -89.965736 80.156380 143.117676
14 -24.626970 125.451866 64.327362 0.000000 -89.965736 80.156380 143.117676
[L_forearm]
13 322.776093 0.000000 -0.000119 0.000432 -0.002307 -111.197716 322.776093
14 322.776093 0.000000 -0.000119 0.000432 -0.002307 -111.191734 322.776093
[L_front_hand]
13 241.149185 -0.042021 -3.300071 -178.667953 -1.835447 -27.422342 241.171753
14 241.149185 -0.042021 -3.300071 -178.667953 -1.835447 -27.422342 241.171753
[L_weapon_bone]
13 156.183838 0.000000 0.000000 0.000014 0.000007 0.000001 156.183838
14 156.183838 0.000000 0.000000 0.000014 0.000007 0.000001 156.183838
[L_front_hand01_01]
13 86.095154 20.947098 -0.655860 -0.281026 -0.528937 65.755089 88.609184
14 86.095154 20.947098 -0.655860 -0.289102 -0.524108 66.611092 88.609184
[L_front_hand02_01]
13 86.935165 -11.437475 24.513514 141.611877 -54.742973 -46.215725 91.046425
14 86.935165 -11.437475 24.513514 142.580521 -55.269005 -47.395390 91.046425
[L_front_hand03_01]
13 86.637497 -14.123976 -20.424902 -141.973572 52.970387 -48.259937 90.126129
14 86.637497 -14.123976 -20.424902 -142.879883 53.494289 -49.392002 90.126129
[L_front_hand01_02]
13 71.020905 -0.000179 0.000030 0.000315 -0.002326 -105.422302 71.020905
14 71.020905 -0.000179 0.000030 0.000315 -0.002326 -105.444061 71.020905
[L_front_hand02_02]
13 71.020927 -0.000119 0.000060 0.000315 -0.002326 -105.422302 71.020927
14 71.020927 -0.000119 0.000060 0.000315 -0.002326 -105.444061 71.020927
[L_front_hand03_02]
13 71.020905 -0.000060 0.000060 0.000315 -0.002326 -105.422302 71.020905
14 71.020905 -0.000060 0.000060 0.000315 -0.002326 -105.444061 71.020905
[R_forearm]
13 322.776428 -0.000060 0.000030 0.201062 0.068300 -109.849342 322.776428
14 322.776428 -0.000060 0.000030 0.201055 0.068322 -109.861427 322.776428
[R_front_hand]
13 238.847015 -0.006795 2.210259 -2.635298 -10.645461 -26.312506 238.857239
14 238.847015 -0.006795 2.210259 -2.635298 -10.645461 -26.312506 238.857239
[R_weapon_bone]
13 155.664093 0.002503 -0.000030 0.003487 0.001180 -90.988930 155.664078
14 155.664093 0.002503 -0.000030 0.003487 0.001180 -90.988930 155.664078
[R_front_hand01_01]
13 87.624611 14.231146 22.918642 -139.165222 -53.267780 43.295258 91.683487
14 87.624611 14.231146 22.918642 -141.083969 -54.436916 45.672497 91.683487
[R_front_hand02_01]
13 89.356956 14.367283 -19.491137 139.980438 51.699215 45.970734 92.579636
14 89.356956 14.367283 -19.491137 141.813004 52.852688 48.289940 92.579636
[R_front_hand03_01]
13 87.286232 -22.307278 -0.143439 0.071045 -0.448771 -63.677063 90.091743
14 87.286232 -22.307278 -0.143439 0.082367 -0.444902 -65.508446 90.091743
[R_front_hand01_02]
13 71.020905 0.000060 0.000119 0.002323 -0.000334 106.381714 71.020905
14 71.020905 0.000060 0.000119 0.002323 -0.000334 106.381714 71.020905
[R_front_hand02_02]
13 71.020844 -0.000030 -0.000119 0.002323 -0.000334 106.381714 71.020836
14 71.020844 -0.000030 -0.000119 0.002323 -0.000334 106.381714 71.020836
[R_front_hand03_02]
13 71.020905 0.000000 0.000030 0.002323 -0.000334 106.381714 71.020905
14 71.020905 0.000000 0.000030 0.002323 -0.000334 106.381714 71.020905
[null_rope01_connect]
13 328.732483 0.000000 -0.000238 -19.332439 -26.404722 37.520184 328.732483
14 328.732483 0.000000 -0.000238 -18.606894 -25.091364 36.603970 328.732483
[Rope1_Seg01]
13 0.000000 0.000000 0.000000 -29.023878 43.644913 141.074219 0.000000
14 0.000000 0.000000 0.000000 -28.434526 45.850601 143.374435 0.000000
[Rope1_Seg02]
13 139.999863 -0.000179 0.000000 -5.551471 18.097118 -15.209527 139.999863
14 139.999863 -0.000179 0.000000 -4.528199 17.792719 -17.515184 139.999863
[Rope1_Seg03]
13 139.999924 0.000060 -0.000060 -27.815611 24.493166 -14.546062 139.999924
14 139.999924 0.000060 -0.000060 -20.121307 21.998650 -17.176657 139.999924
[Rope1_Seg04]
13 139.999924 -0.000060 -0.000119 -63.964088 17.863615 -2.883031 139.999924
14 139.999924 -0.000060 -0.000119 -75.093460 15.493771 -7.145406 139.999924
[Rope1_Seg05]
13 139.999832 0.000119 -0.000060 -75.829041 19.822721 6.781346 139.999832
14 139.999832 0.000119 -0.000060 -85.489639 16.803658 6.959770 139.999832
[Rope1_Seg06]
13 139.999954 0.000119 -0.000060 -19.398935 -0.406404 19.791574 139.999954
14 139.999954 0.000119 -0.000060 -13.272809 -4.516228 16.604982 139.999954
[Rope1_Seg07]
13 139.999985 0.000060 0.000000 -3.102944 -4.463664 9.058787 139.999985
14 139.999985 0.000060 0.000000 -2.071920 -5.267845 8.160093 139.999985
[Rope1_Seg09]
13 121.602913 0.000119 -0.000089 -89.793175 -1.359789 0.847147 121.602913
14 121.602913 0.000119 -0.000089 -89.793175 -1.359789 0.847147 121.602913
[L_mid_hand01]
13 103.859421 1.038730 8.195221 109.630608 -42.428204 -14.062105 104.187431
14 103.859421 1.038730 8.195221 110.331230 -44.470791 -15.085362 104.187431
[L_mid_hand02]
13 105.572853 -4.139662 -10.864139 -147.734787 32.524982 -39.820679 106.211075
14 105.572853 -4.139662 -10.864139 -148.937714 33.668667 -42.029247 106.211075
[L_mid_hand03]
13 104.641464 17.579376 -3.913581 -13.849796 12.791806 45.822666 106.179977
14 104.641464 17.579376 -3.913581 -13.360329 13.301841 47.989174 106.179977
[null_rope02_connect]
13 328.732849 0.000179 -0.000119 -164.007553 1.757003 -44.413357 328.732849
14 328.732849 0.000179 -0.000119 -159.391006 -1.162088 -45.115181 328.732849
[Rope2_Seg01]
13 0.000011 0.000145 0.000244 -2.423614 -58.839840 165.344162 0.000284
14 0.000008 0.000148 0.000264 -3.609357 -50.481941 165.692642 0.000303
[Rope2_Seg02]
13 139.999741 -0.000060 -0.000119 2.555554 -8.016475 -11.173611 139.999756
14 139.999741 -0.000060 -0.000119 5.152225 -10.217632 -13.049740 139.999756
[Rope2_Seg03]
13 140.000107 0.000030 0.000000 2.537771 -10.108263 -14.397684 140.000107
14 140.000107 0.000030 0.000000 5.255505 -14.783846 -17.162024 140.000107
[Rope2_Seg04]
13 139.999802 0.000000 -0.000060 1.215292 -7.537363 -12.768620 139.999802
14 139.999802 0.000000 -0.000060 1.896180 -12.109350 -13.780700 139.999802
[Rope2_Seg05]
13 139.999985 -0.000060 0.000119 0.448887 -15.916639 -12.922166 139.999985
14 139.999985 -0.000060 0.000119 -0.204222 -11.467010 -9.352804 139.999985
[Rope2_Seg06]
13 139.999893 -0.000030 -0.000119 -4.717613 -30.363230 -22.604504 139.999893
14 139.999893 -0.000030 -0.000119 -3.753603 -26.220285 -19.358150 139.999893
[Rope2_Seg07]
13 139.999893 0.000060 -0.000060 -9.093135 -13.645190 -14.928934 139.999893
14 139.999893 0.000060 -0.000060 -11.079108 -20.742695 -21.024403 139.999893
[Rope2_Seg09]
13 121.338966 0.000089 -0.000060 33.793236 -1.359788 -0.847141 121.338966
14 121.338966 0.000089 -0.000060 33.793236 -1.359788 -0.847141 121.338966
[R_mid_hand01]
13 104.680779 11.144459 -10.335981 -35.659065 33.675755 40.429829 105.778534
14 104.680779 11.144459 -10.335981 -36.495327 32.739502 38.894321 105.778534
[R_mid_hand02]
13 104.070427 2.443552 8.231699 69.379761 -45.224785 15.491559 104.424065
14 104.070427 2.443552 8.231699 69.926315 -43.736977 14.713633 104.424065
[R_mid_hand03]
13 106.028137 -11.221827 -5.996406 -170.548004 12.734509 -50.222614 106.788818
14 106.028137 -11.221827 -5.996406 -170.196442 12.469418 -48.616356 106.788818
[spine02]
13 129.756927 0.001550 0.000119 0.538965 -4.023730 -15.484610 129.756927
14 129.756927 0.001550 0.000119 0.539141 -4.023707 -15.489609 129.756927
[spine03]
13 78.614067 0.080963 -4.898990 1.999265 3.777010 18.037203 78.766602
14 78.614067 0.080907 -4.898989 1.998724 3.782594 17.997227 78.766602
[pelvis]
13 169.435242 0.051022 0.000000 -0.023868 -0.190593 3.449367 169.435257
14 169.435242 0.051022 0.000000 -0.021743 -0.190847 2.172978 169.435257
[null_rope03_connect]
13 -1.257226 -2.466202 137.391083 -6.627538 -8.689332 96.090042 137.418976
14 -1.257226 -2.466202 137.391083 -8.201130 -6.678307 94.801407 137.418976
[null_rope04_connect]
13 -1.259640 -2.480268 -137.844437 -6.627538 -8.689332 96.090042 137.872513
14 -1.259640 -2.480268 -137.844437 -8.201130 -6.678307 94.801407 137.872513
[Rope3_Seg01]
13 0.000000 0.000000 0.000000 46.137798 -42.291195 -114.149956 0.000000
14 0.000000 0.000000 0.000000 49.481182 -42.521431 -117.990524 0.000000
[Rope3_Seg02]
13 139.999924 -0.000119 0.000060 6.870937 -2.012370 23.997826 139.999924
14 139.999924 -0.000119 0.000060 7.814120 -2.783007 23.397514 139.999924
[Rope3_Seg03]
13 139.999924 -0.000119 0.000119 1.736756 -0.762480 23.728992 139.999924
14 139.999924 -0.000119 0.000119 2.537001 -0.561709 24.383495 139.999924
[Rope3_Seg04]
13 139.999924 0.000119 0.000000 -1.302901 -0.655772 14.450328 139.999924
14 139.999924 0.000119 0.000000 -1.020901 -1.192515 14.787793 139.999924
[Rope3_Seg05]
13 139.999924 -0.000238 0.000060 0.219251 5.321588 10.110179 139.999924
14 139.999924 -0.000238 0.000060 -0.318033 3.430008 9.865569 139.999924
[Rope3_Seg06]
13 139.999893 -0.000119 -0.000060 2.932573 9.699049 10.601878 139.999893
14 139.999893 -0.000119 -0.000060 1.833902 9.275321 13.290328 139.999893
[Rope3_Seg07]
13 139.999771 0.000060 -0.000119 1.760682 6.253179 8.010145 139.999771
14 139.999771 0.000060 -0.000119 1.659291 9.103395 13.726400 139.999771
[Rope3_Seg08]
13 139.999985 -0.000060 0.000000 1.195665 3.797415 4.937025 139.999985
14 139.999985 -0.000060 0.000000 -0.073560 5.211596 8.586125 139.999985
[Rope3_Seg09]
13 90.185997 -0.000179 -0.000060 89.793228 -1.359877 -0.847183 90.185997
14 90.185997 -0.000179 -0.000060 89.793228 -1.359877 -0.847183 90.185997
[R_rear_hand01]
13 103.366196 -6.073594 -10.757982 -165.364609 20.073744 -42.141060 104.101845
14 103.366196 -6.073594 -10.757982 -164.915863 19.747875 -40.821388 104.101845
[R_rear_hand02]
13 100.509819 12.039542 -7.992327 -30.084066 25.665678 39.802120 101.543350
14 100.509819 12.039542 -7.992327 -30.611040 25.017698 38.577400 101.543350
[R_rear_hand03]
13 101.539970 5.215704 5.435467 82.244080 -42.772614 9.150361 101.819031
14 101.539970 5.215704 5.435467 82.396400 -41.501785 8.918382 101.819031
[Rope4_Seg01]
13 0.000120 -0.000038 -0.000153 -109.171448 63.274273 -104.299507 0.000198
14 0.000131 -0.000038 -0.000153 -120.060059 68.373032 -114.478821 0.000205
[Rope4_Seg02]
13 139.999985 0.000060 0.000119 -0.580170 -13.681715 -1.004685 139.999985
14 139.999985 0.000060 0.000119 -0.251400 -13.552896 -3.026833 139.999985
[Rope4_Seg03]
13 139.999924 0.000000 -0.000238 0.609997 -14.948310 -0.796649 139.999924
14 139.999924 0.000000 -0.000238 0.616943 -15.399869 -3.331147 139.999924
[Rope4_Seg04]
13 139.999985 0.000000 0.000119 1.684732 -10.686903 1.871052 139.999985
14 139.999985 0.000000 0.000119 1.097466 -11.169328 -1.651204 139.999985
[Rope4_Seg05]
13 139.999802 -0.000060 -0.000119 1.803606 -12.585005 -2.934439 139.999802
14 139.999802 -0.000060 -0.000119 2.876691 -19.050970 -5.935958 139.999802
[Rope4_Seg06]
13 139.999924 0.000000 0.000060 4.508330 -26.827221 -12.229433 139.999924
14 139.999924 0.000000 0.000060 17.652273 -33.346928 -11.683593 139.999924
[Rope4_Seg07]
13 139.999802 0.000000 0.000000 50.340611 -24.487150 -9.579628 139.999802
14 139.999802 0.000000 0.000000 104.244339 -19.021803 -0.731173 139.999802
[Rope4_Seg08]
13 139.999924 0.000000 0.000119 112.961571 -10.485884 6.007004 139.999924
14 139.999924 0.000000 0.000119 27.388222 1.788048 8.365302 139.999924
[Rope4_Seg09]
13 90.185791 0.000060 0.000060 -135.617828 2.228885 0.850567 90.185791
14 90.185791 0.000060 0.000060 -135.617828 2.228885 0.850567 90.185791
[L_rear_hand01]
13 101.696655 -8.392275 -7.654577 -28.796085 -27.129269 137.298477 102.329041
14 101.696655 -8.392275 -7.654577 -27.588615 -28.361088 134.712082 102.329041
[L_rear_hand02]
13 102.726799 -1.568258 5.773216 81.840157 45.725391 170.277420 102.900848
14 102.726799 -1.568258 5.773216 81.431313 48.300438 169.720108 102.900848
[L_rear_hand03]
13 104.552910 9.721220 -10.420293 -166.442245 -20.805420 -134.771164 105.519653
14 104.552910 9.721220 -10.420293 -167.421646 -21.393103 -132.057709 105.519653
